<?xml version="1.0" encoding="iso-8859-1"?>
<!-- Uploaded to: SVG Repo, www.svgrepo.com, Generator: SVG Repo Mixer Tools -->
<svg fill="#ffffff" height="800px" width="800px" version="1.1" id="Layer_1" xmlns="http://www.w3.org/2000/svg" xmlns:xlink="http://www.w3.org/1999/xlink" 
	 viewBox="0 0 512 512" xml:space="preserve">
<g>
	<g>
		<g>
			<path d="M469.333,448h-10.667v-10.667c0-13.888-8.939-25.621-21.333-30.037V254.037c12.395-4.416,21.333-16.149,21.333-30.037
				v-10.667h10.667c5.888,0,10.667-4.779,10.667-10.667v-32h10.667c4.736,0,8.896-3.115,10.219-7.68
				c1.323-4.565-0.491-9.429-4.501-11.989L261.717,1.664c-3.499-2.219-7.957-2.219-11.456,0L15.595,150.997
				c-3.989,2.56-5.824,7.445-4.501,11.989c1.323,4.544,5.504,7.68,10.24,7.68H32v32c0,5.888,4.779,10.667,10.667,10.667h10.667V224
				c0,13.888,8.939,25.621,21.333,30.037v153.259c-12.395,4.416-21.333,16.149-21.333,30.037V448H42.667c-17.643,0-32,14.357-32,32
				v21.333c0,5.888,4.779,10.667,10.667,10.667h469.333c5.888,0,10.667-4.779,10.667-10.667V480
				C501.333,462.357,486.976,448,469.333,448z M437.333,224c0,5.888-4.779,10.667-10.667,10.667H384
				c-5.888,0-10.667-4.779-10.667-10.667v-10.667h64V224z M288,407.296V254.037c12.395-4.416,21.333-16.149,21.333-30.037v-10.667
				H352V224c0,13.888,8.939,25.621,21.333,30.037v153.259C360.939,411.712,352,423.445,352,437.333V448h-42.667v-10.667
				C309.333,423.445,300.395,411.712,288,407.296z M138.667,407.296V254.037C151.061,249.621,160,237.888,160,224v-10.667h42.667
				V224c0,13.888,8.939,25.621,21.333,30.037v153.259c-12.395,4.416-21.333,16.149-21.333,30.037V448H160v-10.667
				C160,423.445,151.061,411.712,138.667,407.296z M85.333,234.667c-5.888,0-10.667-4.779-10.667-10.667v-10.667h64V224
				c0,5.888-4.779,10.667-10.667,10.667H85.333z M117.333,256v149.333H96V256H117.333z M224,437.333
				c0-5.888,4.779-10.667,10.667-10.667h42.667c5.888,0,10.667,4.779,10.667,10.667V448h-64V437.333z M245.333,405.333V256h21.333
				v149.333H245.333z M277.333,234.667h-42.667c-5.888,0-10.667-4.779-10.667-10.667v-10.667h64V224
				C288,229.888,283.221,234.667,277.333,234.667z M373.333,437.333c0-5.888,4.779-10.667,10.667-10.667h42.667
				c5.888,0,10.667,4.779,10.667,10.667V448h-64V437.333z M394.667,405.333V256H416v149.333H394.667z M256,23.317l198.037,126.016
				H57.963L256,23.317z M53.333,192v-21.333h405.333V192H53.333z M74.667,437.333c0-5.888,4.779-10.667,10.667-10.667H128
				c5.888,0,10.667,4.779,10.667,10.667V448h-64V437.333z M480,490.667H32V480c0-5.888,4.779-10.667,10.667-10.667h426.667
				c5.888,0,10.667,4.779,10.667,10.667V490.667z"/>
			<path d="M325.909,108.459l-64-42.667c-3.584-2.389-8.256-2.389-11.84,0l-64,42.667c-3.904,2.603-5.653,7.467-4.288,11.968
				C183.147,124.928,187.307,128,192,128h128c4.693,0,8.832-3.072,10.197-7.573C331.563,115.925,329.813,111.061,325.909,108.459z
				 M227.221,106.667l28.757-19.179l28.779,19.179H227.221z"/>
		</g>
	</g>
</g>
</svg>
