<?xml version="1.0" encoding="UTF-8" standalone="no"?>
<svg
   xmlns:dc="http://purl.org/dc/elements/1.1/"
   xmlns:cc="http://creativecommons.org/ns#"
   xmlns:rdf="http://www.w3.org/1999/02/22-rdf-syntax-ns#"
   xmlns:svg="http://www.w3.org/2000/svg"
   xmlns="http://www.w3.org/2000/svg"
   xmlns:sodipodi="http://sodipodi.sourceforge.net/DTD/sodipodi-0.dtd"
   xmlns:inkscape="http://www.inkscape.org/namespaces/inkscape"
   viewBox="0 0 276.90433 156.91885"
   height="156.91885"
   width="276.90433"
   xml:space="preserve"
   id="svg2"
   version="1.1"
   sodipodi:docname="Neues Textdokument.svg"
   inkscape:version="1.0.2-2 (e86c870879, 2021-01-15)"><sodipodi:namedview
     pagecolor="#ffffff"
     bordercolor="#666666"
     borderopacity="1"
     objecttolerance="10"
     gridtolerance="10"
     guidetolerance="10"
     inkscape:pageopacity="0"
     inkscape:pageshadow="2"
     inkscape:window-width="1436"
     inkscape:window-height="950"
     id="namedview50"
     showgrid="false"
     inkscape:zoom="3.296875"
     inkscape:cx="61.010427"
     inkscape:cy="88.96355"
     inkscape:window-x="256"
     inkscape:window-y="51"
     inkscape:window-maximized="0"
     inkscape:current-layer="svg2"
     inkscape:document-rotation="0"
     showguides="true" /><metadata
     id="metadata8"><rdf:RDF><cc:Work
         rdf:about=""><dc:format>image/svg+xml</dc:format><dc:type
           rdf:resource="http://purl.org/dc/dcmitype/StillImage" /><dc:title></dc:title></cc:Work></rdf:RDF></metadata><defs
     id="defs6"><clipPath
       id="clipPath18"
       clipPathUnits="userSpaceOnUse"><path
         style="clip-rule:evenodd"
         id="path16"
         d="M 0,1.2207e-4 H 960 V 540.00012 H 0 Z" /></clipPath><clipPath
       id="clipPath30"
       clipPathUnits="userSpaceOnUse"><path
         style="clip-rule:evenodd"
         id="path28"
         d="M 1.4305e-5,0 H 960.00001 V 540 H 1.4305e-5 Z" /></clipPath></defs><g
     id="g24"
     transform="matrix(1.2865718,0,0,-1.2142531,-102.0548,590.234)"><g
       clip-path="url(#clipPath30)"
       id="g26"><text
   id="text34"
   style="font-variant:normal;font-weight:bold;font-size:39.96px;font-family:GillSansMT;-inkscape-font-specification:GillSansMT-Bold;writing-mode:lr-tb;fill:#ed7d31;fill-opacity:1;fill-rule:nonzero;stroke:none"
   transform="matrix(1,0,0,-1,79.728,393.77)"><tspan
     id="tspan32"
     y="0"
     x="0 34.765202 54.025921 86.153763 118.2816 149.57028 186.37344">T</tspan></text>
								</g></g><path
     id="path38"
     style="fill:#5b9bd5;fill-opacity:1;fill-rule:evenodd;stroke:none;stroke-width:1.24989"
     d="m 8.8087951,65.778923 c 0,-4.99058 4.9790299,-9.03404 11.1159799,-9.03404 6.13694,0 11.11598,4.04346 11.11598,9.03404 0,4.99058 -4.97904,9.03405 -11.11598,9.03405 -6.13695,0 -11.1159799,-4.04347 -11.1159799,-9.03405 z" /><path
     id="path40"
     style="fill:none;stroke:#8faadc;stroke-width:3.74967;stroke-linecap:butt;stroke-linejoin:miter;stroke-miterlimit:10;stroke-dasharray:none;stroke-opacity:1"
     d="m 8.8087951,65.778923 c 0,-4.99058 4.9790299,-9.03404 11.1159799,-9.03404 6.13694,0 11.11598,4.04346 11.11598,9.03404 0,4.99058 -4.97904,9.03405 -11.11598,9.03405 -6.13695,0 -11.1159799,-4.04347 -11.1159799,-9.03405 z" /></svg>
